<svg width="18" height="16" viewBox="0 0 18 16" fill="none" xmlns="http://www.w3.org/2000/svg">
<path d="M0.468527 14.8976C0.59435 13.1755 0.717297 11.5235 0.834492 9.87155C0.851748 9.63123 0.9711 9.53614 1.19399 9.49559C3.32267 9.10686 5.45112 8.71371 7.57933 8.31613C7.65111 8.31378 7.72153 8.29542 7.78568 8.26231C7.87196 8.19671 7.99778 8.10235 7.99562 8.02273C7.99347 7.94312 7.8698 7.81338 7.77993 7.79126C7.33919 7.68364 6.89198 7.60181 6.44548 7.51483C4.6854 7.17057 2.92244 6.82189 1.16235 6.4909C0.893449 6.44004 0.792072 6.29629 0.776254 6.0486C0.668406 4.33395 0.560558 2.6193 0.459899 0.903914C0.435454 0.482992 0.597226 0.406327 1.04372 0.603151C4.22548 2.00868 7.40725 3.41446 10.589 4.82048C12.7503 5.77438 14.9113 6.72974 17.0721 7.68659C17.2159 7.75146 17.3295 7.90036 17.4575 8.01094C17.3353 8.12741 17.2318 8.29106 17.0872 8.35446C11.784 10.6849 6.47784 13.0092 1.16882 15.3273C0.493692 15.6192 0.439768 15.5816 0.468527 14.8976Z" fill="#3F454A"/>
</svg>
